
<global>
amp_veltrack=0
</global>

<group>
ampeg_release=0.15
group_label=Sustain_0-45
lpc_hicc1=42
lpc_locc1=0

<region>
hikey=a#3
hivel=127
lokey=a3
lovel=0
lpc=poUjQqwMm8KfiApCJbcmwQbLtEHXOibAPl19wBrN8cDEugNB+mC6wM8z77+ply9AS3ZwQFlz5cBubcZA8awHwNR1JMBlp+lA9yaWwKbtvz/txkDAjyPTP+03AsA/JBFA
lpc_rms=-32.03
pitch_keycenter=a#3
sample=Clarinet_fall_PP_A#3.opus
</region>

<region>
hikey=a#4
hivel=127
lokey=a4
lovel=0
lpc=D76pQpodL8NPz7JC8+B5wJ0c+EHLP+bBt9kUQYCOqsF47KZBhdKCwJReCkAICwk/4eq6wOsUqT8mMcrAEoKWQDDuCcDMnC5ADf0jQWHUKMCAzAPBEtvAP15nAEApsmi/
lpc_rms=-26.50
pitch_keycenter=a#4
sample=Clarinet_fall_PP_A#4.opus
</region>

<region>
hikey=a#5
hivel=127
lokey=a5
lovel=0
lpc=AQCHQvDjJsNZjBRD0m1bwhuoqkFU7/vAvE89wdTYdUAN4IhBPw2jwfzdIz+L6pFBhnCMvwmMo8BOuIHBPjmBQcBxYcD/SxxBMbwPwKJKNsGqzo9AkhI7QTaUesHO7dlA
lpc_rms=-21.00
pitch_keycenter=a#5
sample=Clarinet_fall_PP_A#5.opus
</region>

<region>
hikey=c4
hivel=127
lokey=b3
lovel=0
lpc=CE96QqPwzsKfCAdC03kywWvNmUF/j7VA3PUIP1dlxcCMqr9AVw2QwAbwur62wgHB33dOQZs7kMG5Mi9BoYuCwNzhEkB+oolAnFOOPzDIBUByhAzB5WxuQCBbvTsWV+I+
lpc_rms=-31.23
pitch_keycenter=c4
sample=Clarinet_fall_PP_C4.opus
</region>

<region>
hikey=c5
hivel=127
lokey=b4
lovel=0
lpc=99rsQXn5dcI93Q5CxkMawT6PZEHTm7PAaWrUP8wX4sAPN15AZNmNwBr3lkBhrw+/7K60QJG+BsHR5Yc//N8NwI3nsECDwte/spFdQD9Sqb+T0+m/fd9uvzroc78d+gZA
lpc_rms=-31.85
pitch_keycenter=c5
sample=Clarinet_fall_PP_C5.opus
</region>

<region>
hikey=c6
hivel=127
lokey=b5
lovel=0
lpc=9oWfQrkKN8MO5xpDOi9+wglrNELzPhHCU2WTwOU8nUHF0xnAiuZlwetqkkG79xzA/VWewNOQzMAS0qZAoXLuQK6Ih8AbZtnArex8QUSFc8EuaOhAKzdxwQe8fkHHbbjA
lpc_rms=-20.33
offset=7973
pitch_keycenter=c6
sample=Clarinet_fall_PP_C6.opus
</region>

<region>
hikey=d4
hivel=127
lokey=c#4
lovel=0
lpc=vd8SQ9GDcsP9HpRCNls1wWTDNEINDObARE2uQIKNmL+CdQbBUdvKQLb8ScC3GU/B+d48QQC2JcA5uZc/i9N9QELVjT4MHgo/51weP/o1PL+ivG7B0k0tQaITpMFBeLBB
lpc_rms=-22.88
pitch_keycenter=d4
sample=Clarinet_fall_PP_D4.opus
</region>

<region>
hikey=d5
hivel=127
lokey=c#5
lovel=0
lpc=OK0zQp4jwcJLLoVCXKDfwU3Of0Hy00w/IVKNQBZuB8BLnh/BBZZGvc+eJj6Kp8pAv1JnwO7bH0AknIS/nwJ/QPSak8BxMi6/uUARQWQWTcHwS3BArNSqQJKGucDHkgBA
lpc_rms=-27.80
pitch_keycenter=d5
sample=Clarinet_fall_PP_D5.opus
</region>

<region>
hikey=C7
hivel=127
lokey=c#6
lovel=0
lpc=1uqDQsDbHMOibwpD0eU8wqmHW0EHcQnBG/HmwML4WcCLOelBvvGvwcSNgkGNPKzBlQEuvyTcz0FwF4nBpQZcQeO6sMHboiJAqCCyQTbDecHIbxLAZv5ywYxeD0LxTp/B
lpc_rms=-13.97
pitch_keycenter=d6
sample=Clarinet_fall_PP_D6.opus
</region>

<region>
hivel=127
key=e3
lovel=0
lpc=j3kUQudljcIlxQNCmxUYwYouh0GQ5M/A/sJoQDMPtMDjhodAtqzBv3Azzr9obRFA/PCLPYh/4b/s9aO//48ivzjiMUC7uWm/VqPkP/qCQT4iEj7AwVLUPiXtLj95OWw+
lpc_rms=-36.00
sample=Clarinet_fall_PP_E3.opus
</region>

<region>
hikey=e4
hivel=127
lokey=d#4
lovel=0
lpc=U3eWQqKU88JNPBBCwPUYwT+UrUFF/p9Aaqe6QFxVUsGVpj1BSRI7waZthEBO7ATBcDsaQffAXMFGyihBFSOFwFwLF0HRvWXAooGKP/mF5b+W+lrAXFjGQLRui8FAWmdB
lpc_rms=-28.45
pitch_keycenter=e4
sample=Clarinet_fall_PP_E4.opus
</region>

<region>
hikey=e5
hivel=127
lokey=d#5
lovel=0
lpc=1+AhQp/4tsLSx4ZCqHnQwUsBr0EAmibB8VxoQCI4jMD+yLu9G4nVwOjGJEH6QjPAWkObQPGnbcGibihBQIY3QC0aWEDQUz3BmbYCQZiiCMGrkfhA9OD3wCr8Q0EzqcjA
lpc_rms=-25.29
offset=6482
pitch_keycenter=e5
sample=Clarinet_fall_PP_E5.opus
</region>

<region>
hikey=f#3
hivel=127
lokey=f3
lovel=0
lpc=HH8cQkeql8I9US9CPX+FwU1GLUHytF+//H28P2X3ub2DhwdAz8nUv09TD78xJYfAWxwMQB9nr78ARkw/WtF3v6tqJ0D0YTlAEP4Jv7mvNMAgjtq/rBNGP6XqbsCFMplA
lpc_rms=-36.22
pitch_keycenter=f#3
sample=Clarinet_fall_PP_F#3.opus
</region>

<region>
hikey=f#4
hivel=127
lokey=f4
lovel=0
lpc=BemKQpAh7cL5v01CpZmqwemrckH7wf1AQzF6P4WFi0BjLRLBCnwcQI0jGkC1zonA0t1OQHTJocDe23zApX2ZQFmFaT/oYsI/1jnTvwA+UcDZzsM/kIYLQUc+3cDQMbc/
lpc_rms=-28.80
pitch_keycenter=f#4
sample=Clarinet_fall_PP_F#4.opus
</region>

<region>
hikey=f#5
hivel=127
lokey=f5
lovel=0
lpc=f88HQrxBjcLn+B1CT+jjwC4Wi0ErADnBujAxQAgad8D10LC+4Za1vx3Bq79Z/0NA+HelQBBBecAy3XW+C2SZP0VWkL/rDos+mII7wIBsC0Dq0Lm/742ZQF+f1b6UNSLA
lpc_rms=-30.26
offset=5095
pitch_keycenter=f#5
sample=Clarinet_fall_PP_F#5.opus
</region>

<region>
hikey=g#3
hivel=127
lokey=g3
lovel=0
lpc=4diVQiXNE8PuQaFCkE4FwrBAH0L4EXDByvDFQAxzVcBNo90/zGXUQLA5ecHrdI5As9W1QKH3HsE3n1TA76wzQDmoLkH/QKZAh3KVwadlBUGlc4a/s/WCQI77vsCj/UNA
lpc_rms=-28.79
pitch_keycenter=g#3
sample=Clarinet_fall_PP_G#3.opus
</region>

<region>
hikey=g#4
hivel=127
lokey=g4
lovel=0
lpc=vtqWQpeHC8OCLHNCK6CKwavMDEKnokzBX3k2QeYdR8EcyetAPXxFwXjTJD9xgxW/FReoQJGjZkB53hfAV1/sv1rKK8CZmoo/29LhQEVsPsE3w41AnDRXQA+TCUFP/w/B
lpc_rms=-27.12
pitch_keycenter=g#4
sample=Clarinet_fall_PP_G#4.opus
</region>

<region>
hikey=g#5
hivel=127
lokey=g5
lovel=0
lpc=o4X/QkHMksMvwlpDwr3xwbmYv8GU+QpCY9dhwv93GEL8gcvBLpH5QfCHx8Hvx7tBfwOPwaU2sr9QbTBBCdkNwJNvDsEWALBAq7ljQaMskcHj1em/UIEEQaNFSUEb34PB
lpc_rms=-16.89
pitch_keycenter=g#5
sample=Clarinet_fall_PP_G#5.opus
</region>
</group>

<group>
ampeg_release=0.15
group_label=Sustain_46-90
lpc_hicc1=84
lpc_locc1=43

<region>
hikey=a#3
hivel=127
lokey=a3
lovel=0
lpc=BzcZQhePr8KuMWRCd7N4wcqXr0GBYOLAK1qdwGlBgMADgPq/hrQHQOyZFEApTjvA+he0QN9s6r9W9IC90BU3vkuvfL8DkrC/Krc6Pysb+j/Z12jAr+XbQGgaxMCOitk/
lpc_rms=-29.83
pitch_keycenter=a#3
sample=Clarinet_fall_MF_A#3.opus
</region>

<region>
hikey=a#4
hivel=127
lokey=a4
lovel=0
lpc=h5gtQrrE38IHd7pCz9OzwRRYUEEQALLBJ/VMQdZ22sF3FwNCcSiiwAOL8r+PqNrAnRRWv3TNAD8VuLRARzyXP1dwYMCw5xRAn9eMwEstlr/yyAtBUwvKwHd+6T5l+JM/
lpc_rms=-27.44
pitch_keycenter=a#4
sample=Clarinet_fall_MF_A#4.opus
</region>

<region>
hikey=a#5
hivel=127
lokey=a5
lovel=0
lpc=NxlYQou6DMPklQNDsZU9wn78kED2Mw5B276UwePkaT9SxctBBbLcwS4cBkF0G1lBZQ6wweRjdkHQ6cDA+W6pQGPvsMAm/A5AhX8lQAlO28BtcgC+206VQUrIxMFBVRtB
lpc_rms=-21.48
pitch_keycenter=a#5
sample=Clarinet_fall_MF_A#5.opus
</region>

<region>
hikey=c4
hivel=127
lokey=b3
lovel=0
lpc=ESgiQkIfvcIdEH9C/adVwQuyh0GKcDHBHlQAPw/uxcCM9pA/bjFXPyZf9EAIrTfBck4MQYDf8MCvC0BANWJnQDvQIT8y3afA5DyrQOCursDZOQi+fHF9QJz+pL8J9ru8
lpc_rms=-28.07
pitch_keycenter=c4
sample=Clarinet_fall_MF_C4.opus
</region>

<region>
hikey=c5
hivel=127
lokey=b4
lovel=0
lpc=Ck7mQQERqMJVQbBCYs8Ewrf/zECrRIvB6guJQSMOdsFhiqpB1TAywQJLEsBwruQ/xjnKv8Ebhz9K2xc/T4zhQHk3LcEW3ENA9xHPvgCPlUC/EU/AMp+Gv9RTwD84GHi+
lpc_rms=-29.89
pitch_keycenter=c5
sample=Clarinet_fall_MF_C5.opus
</region>

<region>
hikey=c6
hivel=127
lokey=b5
lovel=0
lpc=IQMVQqJ2k8IDtklCFl8Ywd57qcDg781AInouvztUc8H2qsNBRclmwYTCVr9bDgBBZH1fwNIGrsAFKghBR4iJPuVNbcHbKq9BBkkxwbyKqcDvHU5BMbc7wT4HZ8DICO1A
lpc_rms=-23.49
pitch_keycenter=c6
sample=Clarinet_fall_MF_C6.opus
</region>

<region>
hikey=d4
hivel=127
lokey=c#4
lovel=0
lpc=EkicQuzdP8OwDRNDOnQOwmWy5kFMp9PBXiIqwf/ckUB3YCBBVGy5P4JSX7+QkfPAkzSJwPzYiUDx7FJABqXPPz875z9SMIo/h3KKwFZu18C5kolA4f3UP/cprUAnzonA
lpc_rms=-20.10
pitch_keycenter=d4
sample=Clarinet_fall_MF_D4.opus
</region>

<region>
hikey=d5
hivel=127
lokey=c#5
lovel=0
lpc=98ZjQjbUFMMZgw1DJPJ/wkqi6kHsNq3BDsEGQc5c7j6A5clAPMlCwV29pEDZFrO+DuWBwAe8/kBnlknBF+GMQTxU2cC8Ci1BynfSwfvZfEHqouC//rZDQN5LqcCrwUpA
lpc_rms=-25.24
pitch_keycenter=d5
sample=Clarinet_fall_MF_D5.opus
</region>

<region>
hikey=C7
hivel=127
lokey=c#6
lovel=0
lpc=hB0VQmbxisIYyQtCSTPJQOgZecAnidLAu9FAQKPt5D/zzB1AsCrnvwpPo8DPAA9BQymNwPk+y77Yi5u/IUfrQMxbEcHJOApBN14/wdDRX0FJzGHB30MYwUNcAkKQn4fB
lpc_rms=-23.87
pitch_keycenter=D6
sample=Clarinet_fall_MF_D6.opus
</region>

<region>
hivel=127
key=e3
lovel=0
lpc=gqwqQpH028IxsLBCi/e3wRcyxkHCMwTCmf8uQVtGTMEySbhBEx5fwY7GE0HsW/XAln2XP7txf8CcpLZAKdntv59910CTU6fA8BycwJxdrEBfwjPAUGU2P1ULKEAeKdW/
lpc_rms=-25.49
sample=Clarinet_fall_MF_E3.opus
</region>

<region>
hikey=e4
hivel=127
lokey=d#4
lovel=0
lpc=EbaAQlVgHMMUGulCXFfSwSNJhUFusz3BxYyNv23JxsBEvkVADQE7P6bai0Bosfa//TWFvxUlFMF2ESNBFEqyv/4ECkC/qMw/l01rwPerMz63ngm/ZtdDPvgVisAVm59A
lpc_rms=-27.62
pitch_keycenter=e4
sample=Clarinet_fall_MF_E4.opus
</region>

<region>
hikey=e5
hivel=127
lokey=d#5
lovel=0
lpc=X+VaQmbRAsNbLtxC+ohKwmbp/EGD2wrBjBqTv0z5S8EJsYlB7dWHwWjKPEHnlzJAwWMvwSljgr9LlW1BOm88wQ+nIEGdjn7AWoIBwCkORsDkXl7ABOYhQOqmW0Ew3RHB
lpc_rms=-25.54
pitch_keycenter=e5
sample=Clarinet_fall_MF_E5.opus
</region>

<region>
hikey=f#3
hivel=127
lokey=f3
lovel=0
lpc=FF8NQqhAwMI17LVCWBsQwlJup0F0ucDBvSe8QJOwmD5i/ihB6K7owBHmzz95IKnA/jIAQENL6z9yQvO/wfFGQCXd8D8e36bAS1BSP4ZJIj4aeIk/itXCP/C7hsBtLBZA
lpc_rms=-28.56
pitch_keycenter=f#3
sample=Clarinet_fall_MF_F#3.opus
</region>

<region>
hikey=f#4
hivel=127
lokey=f4
lovel=0
lpc=2LglQnfRt8KvTXpCxOKYwdm4l0H6eN/ADKeKv1JTKcEi8/1AXT6lwD4OEEEZM1TAs9GqP6Qkk8B0Fpi/rRHQP49ID0AZl/U/n2f5P0K2vsApMm0/5YTRv8RYBj8QLxtA
lpc_rms=-29.27
pitch_keycenter=f#4
sample=Clarinet_fall_MF_F#4.opus
</region>

<region>
hikey=f#5
hivel=127
lokey=f5
lovel=0
lpc=zM5LQjvkBMMmY+9CfqsywvU6zEFHnMLBPnHDQPp818CwdWtBoIw0wZw8kkDjZB0+EY+IPwuQj8CvAlxAuH2LPxBFfj+Kei/AD/9iwHikZ0BTdN8/xD9kwD9rwUC724bA
lpc_rms=-24.43
pitch_keycenter=f#5
sample=Clarinet_fall_MF_F#5.opus
</region>

<region>
hikey=g#3
hivel=127
lokey=g3
lovel=0
lpc=BKJ3QlAGLcNjvCFDlmY7wjPRL0HYJPDBPHRPQcQOlz/0PgRB0sC3wMZZY7+hzrG/7+sbwCUrA8B/Zv1AhJnFP8vwBr9yTXTAz6RrwCN6UkBEJXk/1HIfQO/8tcD+kkpA
lpc_rms=-26.38
pitch_keycenter=g#3
sample=Clarinet_fall_MF_G#3.opus
</region>

<region>
hikey=g#4
hivel=127
lokey=g4
lovel=0
lpc=XhhsQutREMPwT9RCe5i0wcBx9UGTnevBQ+gMweVYIz+dvqJAZhhDQUvvbsClXs2+ZSauwL9Bv8A6K+m92DBrQfQxKsBHFoG/lnUrwGBME8F8xxFBcmojwOMm0kBaGYXA
lpc_rms=-27.89
pitch_keycenter=g#4
sample=Clarinet_fall_MF_G#4.opus
</region>

<region>
hikey=g#5
hivel=127
lokey=g5
lovel=0
lpc=K17DQufVVMN/twxDAPXkwemoI0JRkhnCbD2lv9sMFr+BzZFBwJ6PwQrMqkBhohtAMlS/wKhCWUHC0lvAUwwwwH+gKMF4bttAzfm7QDHztj7d0Ms/0SXxwOD5lkCv4EzA
lpc_rms=-18.55
pitch_keycenter=g#5
sample=Clarinet_fall_MF_G#5.opus
</region>
</group>

<group>
ampeg_release=0.15
group_label=Sustain_91-127
lpc_hicc1=127
lpc_locc1=85

<region>
hikey=a#3
hivel=127
lokey=a3
lovel=0
lpc=WEqIQRuUKcKUMBNCfC02wYljDEAn6XLAAzAbPYWtWkBaOV2/jO+cPD+3AsCfB2NAfCIEwArXEMBNOhg/AWApQGm4ZT4fcD+/glWSv9dFlr/RwyJAS9qcvs+gU7/lAqQ+
lpc_rms=-23.12
pitch_keycenter=a#3
sample=Clarinet_fall_FF_A#3.opus
</region>

<region>
hikey=a#4
hivel=127
lokey=a4
lovel=0
lpc=ptNSQUf66MH3FLxBvAgBwfIr0UAY5zbBjM0jQf2oF8E7ByRBPIn/wAAgkEANZF7Ail/xP0sk9T9NLMi/4Pj/v011ob8GHNFASOl1vyCzxsCmYTxAj7eKQBo/n8BhMPA/
lpc_rms=-22.60
pitch_keycenter=a#4
sample=Clarinet_fall_FF_A#4.opus
</region>

<region>
hikey=a#5
hivel=127
lokey=a5
lovel=0
lpc=MlKQQf+0HMK3xARC59cTwfJX9b/LvAY+RUYrP3MZGr+SeahAApK8wI9ZZD9cURi/vOTJQAvW5MAtI5dAb+bVwPDSG0GcaJLAah/tvq9kJMAd4pRAR0cuP3TQJcABgAS/
lpc_rms=-14.29
pitch_keycenter=a#5
sample=Clarinet_fall_FF_A#5.opus
</region>

<region>
hikey=c4
hivel=127
lokey=b3
lovel=0
lpc=8ollQQoPEcLgzwxCgBCGwZKz50CEtq/AyxQMQAlEF8DqZv5ArCn3wJT78j/N8XA+tmQVv8xKM78X01FAfXg0wAdx7L+Sg5VAxUQrvonokcCmEuA/b/+JQI5IysBaoT9A
lpc_rms=-23.12
pitch_keycenter=c4
sample=Clarinet_fall_FF_C4.opus
</region>

<region>
hikey=c5
hivel=127
lokey=b4
lovel=0
lpc=5Nw8QRAW18GXpdRB0j+VwcELbUHDDEPBbO4WQekXLMEYLk1BWbz0wOt5gz9pZQy/K9KZP285tL6RzK6+yNCFP6+2OcC58gNAyPXeP5K8mb/pnBo/ACxUwGtIhUCLWrS/
lpc_rms=-20.22
pitch_keycenter=c5
sample=Clarinet_fall_FF_C5.opus
</region>

<region>
hikey=c6
hivel=127
lokey=b5
lovel=0
lpc=4bwoQbGIs8HjN65BQmlJwfSw1UBOLJfAaVGcQCmlW8Apn1BAxQ0RwF433j7loCdArvUVwGOjLD6GPxJApjgav6nS9782dUdAMv74v0NoO0Cq6lfA2St+QDQ9tMBjqWZA
lpc_rms=-12.15
pitch_keycenter=c6
sample=Clarinet_fall_FF_C6.opus
</region>

<region>
hikey=d4
hivel=127
lokey=c#4
lovel=0
lpc=wMkJQrgalsLXCmlCoTWtwQh1TUELsO3A2zO2wNWUmj5nMWRBOWkBwQUMj8DJK0BAFtcwv/HlJcDfXdpAmsYUwWqbZ0Cx7AZAbjOvQIWoGsFTATVAYaWaP3VfJr9CvLw/
lpc_rms=-13.37
pitch_keycenter=d4
sample=Clarinet_fall_FF_D4.opus
</region>

<region>
hikey=d5
hivel=127
lokey=c#5
lovel=0
lpc=ODAqQT9yucHB0qJBQe8TwUG2sECTJALBC2LSQNQfacDBJ6lAd2vEwFvezD+kSwZA8lM1vyZ5VL8C4Yi+qJ0HwNjgyUBLBl/Ax5jQPjlVj8Dj3CJBQXECwQHiYECuGJO/
lpc_rms=-21.43
pitch_keycenter=d5
sample=Clarinet_fall_FF_D5.opus
</region>

<region>
hikey=C7
hivel=127
lokey=c#6
lovel=0
lpc=DxmfQdijDsIaGM5BpOBLwejPMkEwAvDA+fJqQFnhH8CTSaNA2ZOAwNJmYT9g51k/PfUXPtXPJ0DRpbrAza6bQCRwzr+KjDNAY9GEwAAOnkDPkTbBN42zQIMd5UBQpr7A
lpc_rms=-8.58
pitch_keycenter=D6
sample=Clarinet_fall_FF_D6.opus
</region>

<region>
hivel=127
key=e3
lovel=0
lpc=8JGRQZ5fQcI1UklCmSjgwXbWgEGX7XrBlFoWQbY7hMBaPSBBCvsHwfFDJMBQE4VA0nerPwSGlMAWFrJAcP5iwFELqD5zF4Q/iEzIvnxPuj/lWnzAQNBWQKS0sL9Aag0/
lpc_rms=-18.09
sample=Clarinet_fall_FF_E3.opus
</region>

<region>
hikey=e4
hivel=127
lokey=d#4
lovel=0
lpc=I6nDQSVVfMIb2mRCENKJwevtW8Bslc+/lhYOQU3gHMCwRYPAnT42P3fV9j+K3ga/yrxgwCTCkECZHGy/R5h0v/FiW70qzw5ASGMNwJV9jL/piiRAg+NvQHq4IMFj4q9A
lpc_rms=-18.80
pitch_keycenter=e4
sample=Clarinet_fall_FF_E4.opus
</region>

<region>
hikey=e5
hivel=127
lokey=d#5
lovel=0
lpc=pcSVQehsRMIWqFJCysLmwUqcTEEeNUnBp/NZQVR1VMHmBXhBB+BGwYMD40BuGAHB43wrQVVBMcFnrNFA5SxDQIkbAMHL9vZAN1MfwYmwX0G6SRvBcmUEvxKaPkASQ0o+
lpc_rms=-16.10
offset=6637
pitch_keycenter=e5
sample=Clarinet_fall_FF_E5.opus
</region>

<region>
hikey=f#3
hivel=127
lokey=f3
lovel=0
lpc=FmF2QQgSIcJjZRtCOpdwwROnSECuSVrACmyKvqo79j+UbgNAGqnLPtXdosA1+us/ocoWQGR/WMCWYQlAX++SPsvqBD/33DDA/bAGQL6057+EsElAHQbUvwN2t78Qm5Q/
lpc_rms=-24.99
pitch_keycenter=f#3
sample=Clarinet_fall_FF_F#3.opus
</region>

<region>
hikey=f#4
hivel=127
lokey=f4
lovel=0
lpc=qxq0QZ9PSML6khdCsDpfwSbRNUH8dQXB5i8SwBDk074kJhpBo8J4wIQvQL9aJ43Ay8aNQBu3ksA2gidAZLZJQL10m73Va1/AUFN5PzUqAsBUNr1At8kWwEJuxMCQHqxA
lpc_rms=-20.17
offset=7685
pitch_keycenter=f#4
sample=Clarinet_fall_FF_F#4.opus
</region>

<region>
hikey=f#5
hivel=127
lokey=f5
lovel=0
lpc=fClgQbzJCsLFMxJCZmCrwVUGMkFAiA/Bm5wQQUpcN8EB4mBBJ6sCwRv9qb56/DtAJdo/P02eocA1h6lAXSxKwBQnwUCDog7BK92QQIg5pT+4ku2+hBXwPDTZzL8k+7M/
lpc_rms=-16.88
offset=7463
pitch_keycenter=f#5
sample=Clarinet_fall_FF_F#5.opus
</region>

<region>
hikey=g#3
hivel=127
lokey=g3
lovel=0
lpc=dg+kQbfQYMLeWmxCtj/wwUVdP0Hh+OnAbSB/P/xeC8AY2RJBSmyUwHOSS8BFQ3xAYLyFwOf7qT/UZ7c/9dqYP6jQp7+gShXANd0IQMiQyr/p70BAvQL3P4QK9sDKqYRA
lpc_rms=-20.38
pitch_keycenter=g#3
sample=Clarinet_fall_FF_G#3.opus
</region>

<region>
hikey=g#4
hivel=127
lokey=g4
lovel=0
lpc=7K6nQXXZVcJZQUxCsuOjwadbrUCpRabAg3MQQEbmGMDaGolAyMgYv+8DQMBuqotApmU0wGaRDMCg95Y+DP56QAuQQD/ggHPAdpNgPuAc679Y/q9AwEgSP09B6MAGHpFA
lpc_rms=-21.88
pitch_keycenter=g#4
sample=Clarinet_fall_FF_G#4.opus
</region>

<region>
hikey=g#5
hivel=127
lokey=g5
lovel=0
lpc=s5/vQVabjcLrQ4xCkf0dwtUnn0EyoTTBt3IwQSkvnsHN7MRBJqOCwbzAB0FRCRjAS3JFwJPkkUC7oD/ArSPbv2aHHUEuDUDBrok9QUqnIMF+j/lAKdIdwadtVEFBx+PA
lpc_rms=-7.96
pitch_keycenter=g#5
sample=Clarinet_fall_FF_G#5.opus
</region>
</group>

<group>
ampeg_attack=0.05
ampeg_release=5.0
group_label=Release_0-45
lpc_hicc1=42
lpc_locc1=0
trigger=release

<region>
hikey=a#3
hivel=127
lokey=a3
lovel=0
lpc=poUjQqwMm8KfiApCJbcmwQbLtEHXOibAPl19wBrN8cDEugNB+mC6wM8z77+ply9AS3ZwQFlz5cBubcZA8awHwNR1JMBlp+lA9yaWwKbtvz/txkDAjyPTP+03AsA/JBFA
lpc_rms=-32.03
offset=96000
pitch_keycenter=a#3
sample=Clarinet_fall_PP_A#3.opus
</region>

<region>
hikey=a#4
hivel=127
lokey=a4
lovel=0
lpc=D76pQpodL8NPz7JC8+B5wJ0c+EHLP+bBt9kUQYCOqsF47KZBhdKCwJReCkAICwk/4eq6wOsUqT8mMcrAEoKWQDDuCcDMnC5ADf0jQWHUKMCAzAPBEtvAP15nAEApsmi/
lpc_rms=-26.50
offset=105544
pitch_keycenter=a#4
sample=Clarinet_fall_PP_A#4.opus
</region>

<region>
hikey=a#5
hivel=127
lokey=a5
lovel=0
lpc=AQCHQvDjJsNZjBRD0m1bwhuoqkFU7/vAvE89wdTYdUAN4IhBPw2jwfzdIz+L6pFBhnCMvwmMo8BOuIHBPjmBQcBxYcD/SxxBMbwPwKJKNsGqzo9AkhI7QTaUesHO7dlA
lpc_rms=-21.00
offset=95035
pitch_keycenter=a#5
sample=Clarinet_fall_PP_A#5.opus
</region>

<region>
hikey=c4
hivel=127
lokey=b3
lovel=0
lpc=CE96QqPwzsKfCAdC03kywWvNmUF/j7VA3PUIP1dlxcCMqr9AVw2QwAbwur62wgHB33dOQZs7kMG5Mi9BoYuCwNzhEkB+oolAnFOOPzDIBUByhAzB5WxuQCBbvTsWV+I+
lpc_rms=-31.23
offset=96000
pitch_keycenter=c4
sample=Clarinet_fall_PP_C4.opus
</region>

<region>
hikey=c5
hivel=127
lokey=b4
lovel=0
lpc=99rsQXn5dcI93Q5CxkMawT6PZEHTm7PAaWrUP8wX4sAPN15AZNmNwBr3lkBhrw+/7K60QJG+BsHR5Yc//N8NwI3nsECDwte/spFdQD9Sqb+T0+m/fd9uvzroc78d+gZA
lpc_rms=-31.85
offset=101748
pitch_keycenter=c5
sample=Clarinet_fall_PP_C5.opus
</region>

<region>
hikey=c6
hivel=127
lokey=b5
lovel=0
lpc=9oWfQrkKN8MO5xpDOi9+wglrNELzPhHCU2WTwOU8nUHF0xnAiuZlwetqkkG79xzA/VWewNOQzMAS0qZAoXLuQK6Ih8AbZtnArex8QUSFc8EuaOhAKzdxwQe8fkHHbbjA
lpc_rms=-20.33
offset=96000
pitch_keycenter=c6
sample=Clarinet_fall_PP_C6.opus
</region>

<region>
hikey=d4
hivel=127
lokey=c#4
lovel=0
lpc=vd8SQ9GDcsP9HpRCNls1wWTDNEINDObARE2uQIKNmL+CdQbBUdvKQLb8ScC3GU/B+d48QQC2JcA5uZc/i9N9QELVjT4MHgo/51weP/o1PL+ivG7B0k0tQaITpMFBeLBB
lpc_rms=-22.88
offset=96000
pitch_keycenter=d4
sample=Clarinet_fall_PP_D4.opus
</region>

<region>
hikey=d5
hivel=127
lokey=c#5
lovel=0
lpc=OK0zQp4jwcJLLoVCXKDfwU3Of0Hy00w/IVKNQBZuB8BLnh/BBZZGvc+eJj6Kp8pAv1JnwO7bH0AknIS/nwJ/QPSak8BxMi6/uUARQWQWTcHwS3BArNSqQJKGucDHkgBA
lpc_rms=-27.80
offset=102007
pitch_keycenter=d5
sample=Clarinet_fall_PP_D5.opus
</region>

<region>
hikey=C7
hivel=127
lokey=c#6
lovel=0
lpc=1uqDQsDbHMOibwpD0eU8wqmHW0EHcQnBG/HmwML4WcCLOelBvvGvwcSNgkGNPKzBlQEuvyTcz0FwF4nBpQZcQeO6sMHboiJAqCCyQTbDecHIbxLAZv5ywYxeD0LxTp/B
lpc_rms=-13.97
offset=92761
pitch_keycenter=d6
sample=Clarinet_fall_PP_D6.opus
</region>

<region>
hivel=127
key=e3
lovel=0
lpc=j3kUQudljcIlxQNCmxUYwYouh0GQ5M/A/sJoQDMPtMDjhodAtqzBv3Azzr9obRFA/PCLPYh/4b/s9aO//48ivzjiMUC7uWm/VqPkP/qCQT4iEj7AwVLUPiXtLj95OWw+
lpc_rms=-36.00
offset=96000
sample=Clarinet_fall_PP_E3.opus
</region>

<region>
hikey=e4
hivel=127
lokey=d#4
lovel=0
lpc=U3eWQqKU88JNPBBCwPUYwT+UrUFF/p9Aaqe6QFxVUsGVpj1BSRI7waZthEBO7ATBcDsaQffAXMFGyihBFSOFwFwLF0HRvWXAooGKP/mF5b+W+lrAXFjGQLRui8FAWmdB
lpc_rms=-28.45
offset=96000
pitch_keycenter=e4
sample=Clarinet_fall_PP_E4.opus
</region>

<region>
hikey=e5
hivel=127
lokey=d#5
lovel=0
lpc=1+AhQp/4tsLSx4ZCqHnQwUsBr0EAmibB8VxoQCI4jMD+yLu9G4nVwOjGJEH6QjPAWkObQPGnbcGibihBQIY3QC0aWEDQUz3BmbYCQZiiCMGrkfhA9OD3wCr8Q0EzqcjA
lpc_rms=-25.29
offset=110756
pitch_keycenter=e5
sample=Clarinet_fall_PP_E5.opus
</region>

<region>
hikey=f#3
hivel=127
lokey=f3
lovel=0
lpc=HH8cQkeql8I9US9CPX+FwU1GLUHytF+//H28P2X3ub2DhwdAz8nUv09TD78xJYfAWxwMQB9nr78ARkw/WtF3v6tqJ0D0YTlAEP4Jv7mvNMAgjtq/rBNGP6XqbsCFMplA
lpc_rms=-36.22
offset=96000
pitch_keycenter=f#3
sample=Clarinet_fall_PP_F#3.opus
</region>

<region>
hikey=f#4
hivel=127
lokey=f4
lovel=0
lpc=BemKQpAh7cL5v01CpZmqwemrckH7wf1AQzF6P4WFi0BjLRLBCnwcQI0jGkC1zonA0t1OQHTJocDe23zApX2ZQFmFaT/oYsI/1jnTvwA+UcDZzsM/kIYLQUc+3cDQMbc/
lpc_rms=-28.80
offset=107729
pitch_keycenter=f#4
sample=Clarinet_fall_PP_F#4.opus
</region>

<region>
hikey=f#5
hivel=127
lokey=f5
lovel=0
lpc=f88HQrxBjcLn+B1CT+jjwC4Wi0ErADnBujAxQAgad8D10LC+4Za1vx3Bq79Z/0NA+HelQBBBecAy3XW+C2SZP0VWkL/rDos+mII7wIBsC0Dq0Lm/742ZQF+f1b6UNSLA
lpc_rms=-30.26
offset=107212
pitch_keycenter=f#5
sample=Clarinet_fall_PP_F#5.opus
</region>

<region>
hikey=g#3
hivel=127
lokey=g3
lovel=0
lpc=4diVQiXNE8PuQaFCkE4FwrBAH0L4EXDByvDFQAxzVcBNo90/zGXUQLA5ecHrdI5As9W1QKH3HsE3n1TA76wzQDmoLkH/QKZAh3KVwadlBUGlc4a/s/WCQI77vsCj/UNA
lpc_rms=-28.79
offset=96000
pitch_keycenter=g#3
sample=Clarinet_fall_PP_G#3.opus
</region>

<region>
hikey=g#4
hivel=127
lokey=g4
lovel=0
lpc=vtqWQpeHC8OCLHNCK6CKwavMDEKnokzBX3k2QeYdR8EcyetAPXxFwXjTJD9xgxW/FReoQJGjZkB53hfAV1/sv1rKK8CZmoo/29LhQEVsPsE3w41AnDRXQA+TCUFP/w/B
lpc_rms=-27.12
offset=101155
pitch_keycenter=g#4
sample=Clarinet_fall_PP_G#4.opus
</region>

<region>
hikey=g#5
hivel=127
lokey=g5
lovel=0
lpc=o4X/QkHMksMvwlpDwr3xwbmYv8GU+QpCY9dhwv93GEL8gcvBLpH5QfCHx8Hvx7tBfwOPwaU2sr9QbTBBCdkNwJNvDsEWALBAq7ljQaMskcHj1em/UIEEQaNFSUEb34PB
lpc_rms=-16.89
offset=86068
pitch_keycenter=g#5
sample=Clarinet_fall_PP_G#5.opus
</region>
</group>

<group>
ampeg_attack=0.05
ampeg_release=5.0
group_label=Release_46-90
lpc_hicc1=84
lpc_locc1=43
trigger=release

<region>
hikey=a#3
hivel=127
lokey=a3
lovel=0
lpc=BzcZQhePr8KuMWRCd7N4wcqXr0GBYOLAK1qdwGlBgMADgPq/hrQHQOyZFEApTjvA+he0QN9s6r9W9IC90BU3vkuvfL8DkrC/Krc6Pysb+j/Z12jAr+XbQGgaxMCOitk/
lpc_rms=-29.83
offset=109189
pitch_keycenter=a#3
sample=Clarinet_fall_MF_A#3.opus
</region>

<region>
hikey=a#4
hivel=127
lokey=a4
lovel=0
lpc=h5gtQrrE38IHd7pCz9OzwRRYUEEQALLBJ/VMQdZ22sF3FwNCcSiiwAOL8r+PqNrAnRRWv3TNAD8VuLRARzyXP1dwYMCw5xRAn9eMwEstlr/yyAtBUwvKwHd+6T5l+JM/
lpc_rms=-27.44
offset=96000
pitch_keycenter=a#4
sample=Clarinet_fall_MF_A#4.opus
</region>

<region>
hikey=a#5
hivel=127
lokey=a5
lovel=0
lpc=NxlYQou6DMPklQNDsZU9wn78kED2Mw5B276UwePkaT9SxctBBbLcwS4cBkF0G1lBZQ6wweRjdkHQ6cDA+W6pQGPvsMAm/A5AhX8lQAlO28BtcgC+206VQUrIxMFBVRtB
lpc_rms=-21.48
offset=100959
pitch_keycenter=a#5
sample=Clarinet_fall_MF_A#5.opus
</region>

<region>
hikey=c4
hivel=127
lokey=b3
lovel=0
lpc=ESgiQkIfvcIdEH9C/adVwQuyh0GKcDHBHlQAPw/uxcCM9pA/bjFXPyZf9EAIrTfBck4MQYDf8MCvC0BANWJnQDvQIT8y3afA5DyrQOCursDZOQi+fHF9QJz+pL8J9ru8
lpc_rms=-28.07
offset=109116
pitch_keycenter=c4
sample=Clarinet_fall_MF_C4.opus
</region>

<region>
hikey=c5
hivel=127
lokey=b4
lovel=0
lpc=Ck7mQQERqMJVQbBCYs8Ewrf/zECrRIvB6guJQSMOdsFhiqpB1TAywQJLEsBwruQ/xjnKv8Ebhz9K2xc/T4zhQHk3LcEW3ENA9xHPvgCPlUC/EU/AMp+Gv9RTwD84GHi+
lpc_rms=-29.89
offset=96000
pitch_keycenter=c5
sample=Clarinet_fall_MF_C5.opus
</region>

<region>
hikey=c6
hivel=127
lokey=b5
lovel=0
lpc=IQMVQqJ2k8IDtklCFl8Ywd57qcDg781AInouvztUc8H2qsNBRclmwYTCVr9bDgBBZH1fwNIGrsAFKghBR4iJPuVNbcHbKq9BBkkxwbyKqcDvHU5BMbc7wT4HZ8DICO1A
lpc_rms=-23.49
offset=88746
pitch_keycenter=c6
sample=Clarinet_fall_MF_C6.opus
</region>

<region>
hikey=d4
hivel=127
lokey=c#4
lovel=0
lpc=EkicQuzdP8OwDRNDOnQOwmWy5kFMp9PBXiIqwf/ckUB3YCBBVGy5P4JSX7+QkfPAkzSJwPzYiUDx7FJABqXPPz875z9SMIo/h3KKwFZu18C5kolA4f3UP/cprUAnzonA
lpc_rms=-20.10
offset=109201
pitch_keycenter=d4
sample=Clarinet_fall_MF_D4.opus
</region>

<region>
hikey=d5
hivel=127
lokey=c#5
lovel=0
lpc=98ZjQjbUFMMZgw1DJPJ/wkqi6kHsNq3BDsEGQc5c7j6A5clAPMlCwV29pEDZFrO+DuWBwAe8/kBnlknBF+GMQTxU2cC8Ci1BynfSwfvZfEHqouC//rZDQN5LqcCrwUpA
lpc_rms=-25.24
offset=107918
pitch_keycenter=d5
sample=Clarinet_fall_MF_D5.opus
</region>

<region>
hikey=C7
hivel=127
lokey=c#6
lovel=0
lpc=hB0VQmbxisIYyQtCSTPJQOgZecAnidLAu9FAQKPt5D/zzB1AsCrnvwpPo8DPAA9BQymNwPk+y77Yi5u/IUfrQMxbEcHJOApBN14/wdDRX0FJzGHB30MYwUNcAkKQn4fB
lpc_rms=-23.87
offset=88200
pitch_keycenter=D6
sample=Clarinet_fall_MF_D6.opus
</region>

<region>
hivel=127
key=e3
lovel=0
lpc=gqwqQpH028IxsLBCi/e3wRcyxkHCMwTCmf8uQVtGTMEySbhBEx5fwY7GE0HsW/XAln2XP7txf8CcpLZAKdntv59910CTU6fA8BycwJxdrEBfwjPAUGU2P1ULKEAeKdW/
lpc_rms=-25.49
offset=96000
sample=Clarinet_fall_MF_E3.opus
</region>

<region>
hikey=e4
hivel=127
lokey=d#4
lovel=0
lpc=EbaAQlVgHMMUGulCXFfSwSNJhUFusz3BxYyNv23JxsBEvkVADQE7P6bai0Bosfa//TWFvxUlFMF2ESNBFEqyv/4ECkC/qMw/l01rwPerMz63ngm/ZtdDPvgVisAVm59A
lpc_rms=-27.62
offset=112666
pitch_keycenter=e4
sample=Clarinet_fall_MF_E4.opus
</region>

<region>
hikey=e5
hivel=127
lokey=d#5
lovel=0
lpc=X+VaQmbRAsNbLtxC+ohKwmbp/EGD2wrBjBqTv0z5S8EJsYlB7dWHwWjKPEHnlzJAwWMvwSljgr9LlW1BOm88wQ+nIEGdjn7AWoIBwCkORsDkXl7ABOYhQOqmW0Ew3RHB
lpc_rms=-25.54
offset=96000
pitch_keycenter=e5
sample=Clarinet_fall_MF_E5.opus
</region>

<region>
hikey=f#3
hivel=127
lokey=f3
lovel=0
lpc=FF8NQqhAwMI17LVCWBsQwlJup0F0ucDBvSe8QJOwmD5i/ihB6K7owBHmzz95IKnA/jIAQENL6z9yQvO/wfFGQCXd8D8e36bAS1BSP4ZJIj4aeIk/itXCP/C7hsBtLBZA
lpc_rms=-28.56
offset=96000
pitch_keycenter=f#3
sample=Clarinet_fall_MF_F#3.opus
</region>

<region>
hikey=f#4
hivel=127
lokey=f4
lovel=0
lpc=2LglQnfRt8KvTXpCxOKYwdm4l0H6eN/ADKeKv1JTKcEi8/1AXT6lwD4OEEEZM1TAs9GqP6Qkk8B0Fpi/rRHQP49ID0AZl/U/n2f5P0K2vsApMm0/5YTRv8RYBj8QLxtA
lpc_rms=-29.27
offset=103063
pitch_keycenter=f#4
sample=Clarinet_fall_MF_F#4.opus
</region>

<region>
hikey=f#5
hivel=127
lokey=f5
lovel=0
lpc=zM5LQjvkBMMmY+9CfqsywvU6zEFHnMLBPnHDQPp818CwdWtBoIw0wZw8kkDjZB0+EY+IPwuQj8CvAlxAuH2LPxBFfj+Kei/AD/9iwHikZ0BTdN8/xD9kwD9rwUC724bA
lpc_rms=-24.43
offset=96000
pitch_keycenter=f#5
sample=Clarinet_fall_MF_F#5.opus
</region>

<region>
hikey=g#3
hivel=127
lokey=g3
lovel=0
lpc=BKJ3QlAGLcNjvCFDlmY7wjPRL0HYJPDBPHRPQcQOlz/0PgRB0sC3wMZZY7+hzrG/7+sbwCUrA8B/Zv1AhJnFP8vwBr9yTXTAz6RrwCN6UkBEJXk/1HIfQO/8tcD+kkpA
lpc_rms=-26.38
offset=111387
pitch_keycenter=g#3
sample=Clarinet_fall_MF_G#3.opus
</region>

<region>
hikey=g#4
hivel=127
lokey=g4
lovel=0
lpc=XhhsQutREMPwT9RCe5i0wcBx9UGTnevBQ+gMweVYIz+dvqJAZhhDQUvvbsClXs2+ZSauwL9Bv8A6K+m92DBrQfQxKsBHFoG/lnUrwGBME8F8xxFBcmojwOMm0kBaGYXA
lpc_rms=-27.89
offset=97978
pitch_keycenter=g#4
sample=Clarinet_fall_MF_G#4.opus
</region>

<region>
hikey=g#5
hivel=127
lokey=g5
lovel=0
lpc=K17DQufVVMN/twxDAPXkwemoI0JRkhnCbD2lv9sMFr+BzZFBwJ6PwQrMqkBhohtAMlS/wKhCWUHC0lvAUwwwwH+gKMF4bttAzfm7QDHztj7d0Ms/0SXxwOD5lkCv4EzA
lpc_rms=-18.55
offset=96000
pitch_keycenter=g#5
sample=Clarinet_fall_MF_G#5.opus
</region>
</group>

<group>
ampeg_attack=0.05
ampeg_release=5.0
group_label=Release_91-127
lpc_hicc1=127
lpc_locc1=85
trigger=release

<region>
hikey=a#3
hivel=127
lokey=a3
lovel=0
lpc=WEqIQRuUKcKUMBNCfC02wYljDEAn6XLAAzAbPYWtWkBaOV2/jO+cPD+3AsCfB2NAfCIEwArXEMBNOhg/AWApQGm4ZT4fcD+/glWSv9dFlr/RwyJAS9qcvs+gU7/lAqQ+
lpc_rms=-23.12
offset=96000
pitch_keycenter=a#3
sample=Clarinet_fall_FF_A#3.opus
</region>

<region>
hikey=a#4
hivel=127
lokey=a4
lovel=0
lpc=ptNSQUf66MH3FLxBvAgBwfIr0UAY5zbBjM0jQf2oF8E7ByRBPIn/wAAgkEANZF7Ail/xP0sk9T9NLMi/4Pj/v011ob8GHNFASOl1vyCzxsCmYTxAj7eKQBo/n8BhMPA/
lpc_rms=-22.60
offset=105765
pitch_keycenter=a#4
sample=Clarinet_fall_FF_A#4.opus
</region>

<region>
hikey=a#5
hivel=127
lokey=a5
lovel=0
lpc=MlKQQf+0HMK3xARC59cTwfJX9b/LvAY+RUYrP3MZGr+SeahAApK8wI9ZZD9cURi/vOTJQAvW5MAtI5dAb+bVwPDSG0GcaJLAah/tvq9kJMAd4pRAR0cuP3TQJcABgAS/
lpc_rms=-14.29
offset=100881
pitch_keycenter=a#5
sample=Clarinet_fall_FF_A#5.opus
</region>

<region>
hikey=c4
hivel=127
lokey=b3
lovel=0
lpc=8ollQQoPEcLgzwxCgBCGwZKz50CEtq/AyxQMQAlEF8DqZv5ArCn3wJT78j/N8XA+tmQVv8xKM78X01FAfXg0wAdx7L+Sg5VAxUQrvonokcCmEuA/b/+JQI5IysBaoT9A
lpc_rms=-23.12
offset=96000
pitch_keycenter=c4
sample=Clarinet_fall_FF_C4.opus
</region>

<region>
hikey=c5
hivel=127
lokey=b4
lovel=0
lpc=5Nw8QRAW18GXpdRB0j+VwcELbUHDDEPBbO4WQekXLMEYLk1BWbz0wOt5gz9pZQy/K9KZP285tL6RzK6+yNCFP6+2OcC58gNAyPXeP5K8mb/pnBo/ACxUwGtIhUCLWrS/
lpc_rms=-20.22
offset=107782
pitch_keycenter=c5
sample=Clarinet_fall_FF_C5.opus
</region>

<region>
hikey=c6
hivel=127
lokey=b5
lovel=0
lpc=4bwoQbGIs8HjN65BQmlJwfSw1UBOLJfAaVGcQCmlW8Apn1BAxQ0RwF433j7loCdArvUVwGOjLD6GPxJApjgav6nS9782dUdAMv74v0NoO0Cq6lfA2St+QDQ9tMBjqWZA
lpc_rms=-12.15
offset=99320
pitch_keycenter=c6
sample=Clarinet_fall_FF_C6.opus
</region>

<region>
hikey=d4
hivel=127
lokey=c#4
lovel=0
lpc=wMkJQrgalsLXCmlCoTWtwQh1TUELsO3A2zO2wNWUmj5nMWRBOWkBwQUMj8DJK0BAFtcwv/HlJcDfXdpAmsYUwWqbZ0Cx7AZAbjOvQIWoGsFTATVAYaWaP3VfJr9CvLw/
lpc_rms=-13.37
offset=109287
pitch_keycenter=d4
sample=Clarinet_fall_FF_D4.opus
</region>

<region>
hikey=d5
hivel=127
lokey=c#5
lovel=0
lpc=ODAqQT9yucHB0qJBQe8TwUG2sECTJALBC2LSQNQfacDBJ6lAd2vEwFvezD+kSwZA8lM1vyZ5VL8C4Yi+qJ0HwNjgyUBLBl/Ax5jQPjlVj8Dj3CJBQXECwQHiYECuGJO/
lpc_rms=-21.43
offset=102750
pitch_keycenter=d5
sample=Clarinet_fall_FF_D5.opus
</region>

<region>
hikey=C7
hivel=127
lokey=c#6
lovel=0
lpc=DxmfQdijDsIaGM5BpOBLwejPMkEwAvDA+fJqQFnhH8CTSaNA2ZOAwNJmYT9g51k/PfUXPtXPJ0DRpbrAza6bQCRwzr+KjDNAY9GEwAAOnkDPkTbBN42zQIMd5UBQpr7A
lpc_rms=-8.58
offset=95752
pitch_keycenter=D6
sample=Clarinet_fall_FF_D6.opus
</region>

<region>
hivel=127
key=e3
lovel=0
lpc=8JGRQZ5fQcI1UklCmSjgwXbWgEGX7XrBlFoWQbY7hMBaPSBBCvsHwfFDJMBQE4VA0nerPwSGlMAWFrJAcP5iwFELqD5zF4Q/iEzIvnxPuj/lWnzAQNBWQKS0sL9Aag0/
lpc_rms=-18.09
offset=96000
sample=Clarinet_fall_FF_E3.opus
</region>

<region>
hikey=e4
hivel=127
lokey=d#4
lovel=0
lpc=I6nDQSVVfMIb2mRCENKJwevtW8Bslc+/lhYOQU3gHMCwRYPAnT42P3fV9j+K3ga/yrxgwCTCkECZHGy/R5h0v/FiW70qzw5ASGMNwJV9jL/piiRAg+NvQHq4IMFj4q9A
lpc_rms=-18.80
offset=104235
pitch_keycenter=e4
sample=Clarinet_fall_FF_E4.opus
</region>

<region>
hikey=e5
hivel=127
lokey=d#5
lovel=0
lpc=pcSVQehsRMIWqFJCysLmwUqcTEEeNUnBp/NZQVR1VMHmBXhBB+BGwYMD40BuGAHB43wrQVVBMcFnrNFA5SxDQIkbAMHL9vZAN1MfwYmwX0G6SRvBcmUEvxKaPkASQ0o+
lpc_rms=-16.10
offset=113716
pitch_keycenter=e5
sample=Clarinet_fall_FF_E5.opus
</region>

<region>
hikey=f#3
hivel=127
lokey=f3
lovel=0
lpc=FmF2QQgSIcJjZRtCOpdwwROnSECuSVrACmyKvqo79j+UbgNAGqnLPtXdosA1+us/ocoWQGR/WMCWYQlAX++SPsvqBD/33DDA/bAGQL6057+EsElAHQbUvwN2t78Qm5Q/
lpc_rms=-24.99
offset=96000
pitch_keycenter=f#3
sample=Clarinet_fall_FF_F#3.opus
</region>

<region>
hikey=f#4
hivel=127
lokey=f4
lovel=0
lpc=qxq0QZ9PSML6khdCsDpfwSbRNUH8dQXB5i8SwBDk074kJhpBo8J4wIQvQL9aJ43Ay8aNQBu3ksA2gidAZLZJQL10m73Va1/AUFN5PzUqAsBUNr1At8kWwEJuxMCQHqxA
lpc_rms=-20.17
offset=112613
pitch_keycenter=f#4
sample=Clarinet_fall_FF_F#4.opus
</region>

<region>
hikey=f#5
hivel=127
lokey=f5
lovel=0
lpc=fClgQbzJCsLFMxJCZmCrwVUGMkFAiA/Bm5wQQUpcN8EB4mBBJ6sCwRv9qb56/DtAJdo/P02eocA1h6lAXSxKwBQnwUCDog7BK92QQIg5pT+4ku2+hBXwPDTZzL8k+7M/
lpc_rms=-16.88
offset=107638
pitch_keycenter=f#5
sample=Clarinet_fall_FF_F#5.opus
</region>

<region>
hikey=g#3
hivel=127
lokey=g3
lovel=0
lpc=dg+kQbfQYMLeWmxCtj/wwUVdP0Hh+OnAbSB/P/xeC8AY2RJBSmyUwHOSS8BFQ3xAYLyFwOf7qT/UZ7c/9dqYP6jQp7+gShXANd0IQMiQyr/p70BAvQL3P4QK9sDKqYRA
lpc_rms=-20.38
offset=104368
pitch_keycenter=g#3
sample=Clarinet_fall_FF_G#3.opus
</region>

<region>
hikey=g#4
hivel=127
lokey=g4
lovel=0
lpc=7K6nQXXZVcJZQUxCsuOjwadbrUCpRabAg3MQQEbmGMDaGolAyMgYv+8DQMBuqotApmU0wGaRDMCg95Y+DP56QAuQQD/ggHPAdpNgPuAc679Y/q9AwEgSP09B6MAGHpFA
lpc_rms=-21.88
offset=107010
pitch_keycenter=g#4
sample=Clarinet_fall_FF_G#4.opus
</region>

<region>
hikey=g#5
hivel=127
lokey=g5
lovel=0
lpc=s5/vQVabjcLrQ4xCkf0dwtUnn0EyoTTBt3IwQSkvnsHN7MRBJqOCwbzAB0FRCRjAS3JFwJPkkUC7oD/ArSPbv2aHHUEuDUDBrok9QUqnIMF+j/lAKdIdwadtVEFBx+PA
lpc_rms=-7.96
offset=100732
pitch_keycenter=g#5
sample=Clarinet_fall_FF_G#5.opus
</region>
</group>